# xmcd
#
# Track frame offsets: 
#        150
#        20565
#        41257
#        61450
#        79107
#        96447
#        114337
#        131650
#        147835
#        165625
#
# Disc length: 2456 seconds
#
# Revision: 0
# Processed by: cddbd v1.5.2PL0 Copyright (c) Steve Scherf et al.
# Submitted via: ExactAudioCopy v0.99pb5
#
DISCID=8109960a
DTITLE=Angie Stone - Life Goes On
DYEAR=2007
DGENRE=R&B
TTITLE0=Wish I Didn't Miss You
TTITLE1=Cinderella Ballin
TTITLE2=Brotha
TTITLE3=U-Haul
TTITLE4=Remy Red
TTITLE5=Life Goes On
TTITLE6=Snowflakes
TTITLE7=You Don't Love Me
TTITLE8=Easier Said Than Done
TTITLE9=Life Story
EXTD=
EXTT0=
EXTT1=
EXTT2=
EXTT3=
EXTT4=
EXTT5=
EXTT6=
EXTT7=
EXTT8=
EXTT9=
PLAYORDER=
